<svg width="48" height="48" viewBox="0 0 48 48" fill="none" xmlns="http://www.w3.org/2000/svg">
<circle cx="24" cy="24" r="24" fill="#E6E2FF"/>
<g clip-path="url(#clip0_42_259)">
<path fill-rule="evenodd" clip-rule="evenodd" d="M38.49 21.5679C38.6714 21.4562 38.8153 21.293 38.9035 21.0991C38.9917 20.9052 39.0201 20.6894 38.985 20.4793L37.5707 12.0365C37.5472 11.8962 37.496 11.7621 37.4201 11.6418C37.3442 11.5216 37.2452 11.4176 37.1287 11.336C37.0122 11.2545 36.8806 11.1969 36.7417 11.1667C36.6027 11.1365 36.4591 11.1342 36.3193 11.1601L28.305 12.6493C28.0998 12.6876 27.9102 12.785 27.7595 12.9296C27.6089 13.0742 27.5038 13.2596 27.4571 13.4631C27.4105 13.6666 27.4243 13.8794 27.4969 14.0751C27.5695 14.2709 27.6977 14.4412 27.8657 14.5651L31.4057 17.1751L25.3072 25.8858L19.74 21.9815C19.4493 21.778 19.0896 21.6982 18.74 21.7596C18.3905 21.8211 18.0796 22.0188 17.8757 22.3093L9.24002 34.6351C9.13913 34.7791 9.06762 34.9417 9.02955 35.1134C8.99148 35.2851 8.98761 35.4626 9.01815 35.6359C9.0487 35.8091 9.11306 35.9746 9.20756 36.1229C9.30207 36.2713 9.42487 36.3995 9.56894 36.5004C9.85993 36.7042 10.2199 36.784 10.5697 36.7223C10.743 36.6917 10.9085 36.6274 11.0568 36.5329C11.2051 36.4384 11.3334 36.3156 11.4343 36.1715L19.2986 24.9429L24.8657 28.8472C25.1568 29.0505 25.5166 29.13 25.8662 29.0681C26.2158 29.0062 26.5265 28.8081 26.73 28.5172L33.5593 18.7672L37.29 21.5186C37.462 21.6453 37.668 21.7177 37.8814 21.7265C38.0949 21.7353 38.306 21.6801 38.4879 21.5679" fill="#5A3FFF"/>
</g>
<defs>
<clipPath id="clip0_42_259">
<rect width="30" height="30" fill="white" transform="translate(9 9)"/>
</clipPath>
</defs>
</svg>
