<svg width="50" height="50" viewBox="0 0 50 50" fill="none" xmlns="http://www.w3.org/2000/svg">
<rect opacity="0.5" width="50" height="50" rx="10" fill="#CCC3FF"/>
<path d="M20 28.3C22.2 28.3 24 26.47 24 24.25C24 23.09 23.43 21.99 22.29 21.06C21.15 20.13 20.29 18.75 20 17.3C19.71 18.75 18.86 20.14 17.71 21.06C16.56 21.98 16 23.1 16 24.25C16 26.47 17.8 28.3 20 28.3Z" stroke="white" stroke-width="2" stroke-linecap="round" stroke-linejoin="round"/>
<path d="M25.56 18.6C26.2478 17.5011 26.7353 16.2891 27 15.02C27.5 17.52 29 19.92 31 21.52C33 23.12 34 25.02 34 27.02C34.0057 28.4023 33.6009 29.7552 32.8368 30.9071C32.0727 32.059 30.9838 32.9582 29.7081 33.4905C28.4324 34.0229 27.0274 34.1644 25.6712 33.8973C24.3149 33.6302 23.0685 32.9664 22.09 31.99" stroke="white" stroke-width="2" stroke-linecap="round" stroke-linejoin="round"/>
</svg>
