<svg width="20" height="20" viewBox="0 0 20 20" fill="none" xmlns="http://www.w3.org/2000/svg">
<path d="M5.83333 13.5833C7.66667 13.5833 9.16667 12.0583 9.16667 10.2083C9.16667 9.24163 8.69167 8.32496 7.74167 7.54996C6.79167 6.77496 6.075 5.62496 5.83333 4.41663C5.59167 5.62496 4.88333 6.78329 3.925 7.54996C2.96667 8.31663 2.5 9.24996 2.5 10.2083C2.5 12.0583 4 13.5833 5.83333 13.5833Z" stroke="#101828" stroke-width="2" stroke-linecap="round" stroke-linejoin="round"/>
<path d="M8.72498 4.64996C9.29811 3.73423 9.7044 2.72416 9.92498 1.66663C10.3416 3.74996 11.5916 5.74996 13.2583 7.08329C14.925 8.41663 15.7583 9.99996 15.7583 11.6666C15.7631 12.8185 15.4257 13.9459 14.789 14.9059C14.1522 15.8658 13.2448 16.6151 12.1818 17.0587C11.1187 17.5023 9.94783 17.6203 8.81762 17.3977C7.68742 17.1751 6.64876 16.6219 5.83331 15.8083" stroke="#101828" stroke-width="2" stroke-linecap="round" stroke-linejoin="round"/>
</svg>
