<svg width="40" height="40" viewBox="0 0 40 40" fill="none" xmlns="http://www.w3.org/2000/svg">
<circle cx="20" cy="20" r="20" fill="#CCC3FF"/>
<path d="M15.8333 23.5834C17.6667 23.5834 19.1667 22.0584 19.1667 20.2084C19.1667 19.2417 18.6917 18.3251 17.7417 17.5501C16.7917 16.7751 16.075 15.6251 15.8333 14.4167C15.5917 15.6251 14.8833 16.7834 13.925 17.5501C12.9667 18.3167 12.5 19.2501 12.5 20.2084C12.5 22.0584 14 23.5834 15.8333 23.5834Z" stroke="#5A3FFF" stroke-width="2" stroke-linecap="round" stroke-linejoin="round"/>
<path d="M18.725 14.6501C19.2981 13.7344 19.7044 12.7243 19.925 11.6667C20.3417 13.7501 21.5917 15.7501 23.2583 17.0834C24.925 18.4167 25.7583 20.0001 25.7583 21.6667C25.7631 22.8187 25.4257 23.946 24.789 24.906C24.1523 25.8659 23.2449 26.6152 22.1818 27.0588C21.1187 27.5024 19.9479 27.6204 18.8177 27.3978C17.6874 27.1752 16.6488 26.622 15.8333 25.8084" stroke="#5A3FFF" stroke-width="2" stroke-linecap="round" stroke-linejoin="round"/>
</svg>
