<svg width="40" height="40" viewBox="0 0 40 40" fill="none" xmlns="http://www.w3.org/2000/svg">
<circle cx="20" cy="20" r="20" fill="#FAC5C5"/>
<path d="M27.5 20C27.5 21.4834 27.0601 22.9334 26.236 24.1668C25.4119 25.4001 24.2406 26.3614 22.8701 26.9291C21.4997 27.4968 19.9917 27.6453 18.5368 27.3559C17.082 27.0665 15.7456 26.3522 14.6967 25.3033C13.6478 24.2544 12.9335 22.918 12.6441 21.4632C12.3547 20.0083 12.5032 18.5003 13.0709 17.1299C13.6386 15.7594 14.5999 14.5881 15.8332 13.764C17.0666 12.9399 18.5166 12.5 20 12.5C22.1 12.5 24.1083 13.3333 25.6167 14.7833L27.5 16.6667" stroke="#EF4444" stroke-width="1.66667" stroke-linecap="round" stroke-linejoin="round"/>
<path d="M27.5 12.5V16.6667H23.3333" stroke="#EF4444" stroke-width="1.66667" stroke-linecap="round" stroke-linejoin="round"/>
</svg>
