<svg width="40" height="40" viewBox="0 0 40 40" fill="none" xmlns="http://www.w3.org/2000/svg">
<circle cx="20" cy="20" r="20" fill="#FFECB2"/>
<g clip-path="url(#clip0_42_172)">
<path d="M26.6296 18.4703C27.6587 18.5212 28.4946 19.2424 28.6004 20.267C28.6817 21.0553 28.75 22.1358 28.75 23.5416C28.75 24.9474 28.6817 26.0278 28.6004 26.8162C28.4946 27.8412 27.6587 28.562 26.6296 28.6128C25.2896 28.6791 23.1221 28.7499 20 28.7499C16.8779 28.7499 14.7104 28.6791 13.3704 28.6128C12.3412 28.562 11.5054 27.8408 11.3996 26.8162C11.3183 26.0278 11.25 24.9474 11.25 23.5416C11.25 22.1358 11.3183 21.0553 11.3996 20.267C11.5054 19.242 12.3412 18.5212 13.3704 18.4703C14.7104 18.4041 16.8779 18.3333 20 18.3333C23.1221 18.3333 25.2896 18.4041 26.6296 18.4703Z" stroke="#E6AE06" stroke-width="1.5" stroke-linecap="round" stroke-linejoin="round"/>
<path d="M20 11.25C19.4779 11.9404 19.4121 12.7883 20 13.75C20.5879 14.7117 20.5221 15.5596 20 16.25M15.8333 11.25C15.3112 11.9404 15.2454 12.7883 15.8333 13.75C16.4212 14.7117 16.3554 15.5596 15.8333 16.25M24.1667 11.25C23.6446 11.9404 23.5787 12.7883 24.1667 13.75C24.7546 14.7117 24.6887 15.5596 24.1667 16.25M25.3937 20.8437C25.8846 20.8708 26.2117 21.2771 26.2267 21.7688C26.2392 22.1838 26.25 22.7679 26.25 23.5417C26.25 24.3154 26.2392 24.8996 26.2267 25.3146C26.2117 25.8063 25.8846 26.2125 25.3933 26.2396C25.1312 26.2542 24.8684 26.2542 24.6062 26.2396C24.1154 26.2125 23.7883 25.8063 23.7733 25.3146C23.7608 24.8996 23.75 24.3154 23.75 23.5417C23.75 22.7679 23.7608 22.1838 23.7733 21.7688C23.7883 21.2771 24.1154 20.8708 24.6067 20.8437C24.8688 20.8292 25.1316 20.8292 25.3937 20.8437ZM20.3937 20.8437C20.8846 20.8708 21.2117 21.2771 21.2267 21.7688C21.2392 22.1838 21.25 22.7679 21.25 23.5417C21.25 24.3154 21.2392 24.8996 21.2267 25.3146C21.2117 25.8063 20.8846 26.2125 20.3933 26.2396C20.1312 26.2542 19.8684 26.2542 19.6062 26.2396C19.1154 26.2125 18.7883 25.8063 18.7733 25.3146C18.7608 24.8996 18.75 24.3154 18.75 23.5417C18.75 22.7679 18.7608 22.1838 18.7733 21.7688C18.7883 21.2771 19.1154 20.8708 19.6067 20.8437C19.8688 20.8292 20.1316 20.8292 20.3937 20.8437ZM16.25 22.0833C16.25 22.4149 16.1183 22.7328 15.8839 22.9672C15.6495 23.2016 15.3315 23.3333 15 23.3333C14.6685 23.3333 14.3505 23.2016 14.1161 22.9672C13.8817 22.7328 13.75 22.4149 13.75 22.0833C13.75 21.7518 13.8817 21.4339 14.1161 21.1994C14.3505 20.965 14.6685 20.8333 15 20.8333C15.3315 20.8333 15.6495 20.965 15.8839 21.1994C16.1183 21.4339 16.25 21.7518 16.25 22.0833Z" stroke="#E6AE06" stroke-width="1.5" stroke-linecap="round" stroke-linejoin="round"/>
</g>
<defs>
<clipPath id="clip0_42_172">
<rect width="20" height="20" fill="white" transform="translate(10 10)"/>
</clipPath>
</defs>
</svg>
