<svg width="40" height="40" viewBox="0 0 40 40" fill="none" xmlns="http://www.w3.org/2000/svg">
<circle cx="20" cy="20" r="20" fill="#FFECB2"/>
<path d="M24.1667 18.3333C24.1667 19.6975 23.5125 20.9083 22.4967 21.6692L23.4967 23.0025C24.2226 22.4597 24.8118 21.755 25.2175 20.9444C25.6231 20.1338 25.834 19.2397 25.8334 18.3333H24.1667ZM20 14.1667C21.1051 14.1667 22.1649 14.6057 22.9463 15.3871C23.7277 16.1685 24.1667 17.2283 24.1667 18.3333H25.8334C25.8334 16.7862 25.2188 15.3025 24.1248 14.2085C23.0308 13.1146 21.5471 12.5 20 12.5V14.1667ZM15.8334 18.3333C15.8334 17.2283 16.2723 16.1685 17.0537 15.3871C17.8351 14.6057 18.895 14.1667 20 14.1667V12.5C18.4529 12.5 16.9692 13.1146 15.8752 14.2085C14.7813 15.3025 14.1667 16.7862 14.1667 18.3333H15.8334ZM17.5034 21.6692C16.9844 21.2816 16.5632 20.7782 16.2733 20.199C15.9834 19.6199 15.8327 18.981 15.8334 18.3333H14.1667C14.166 19.2397 14.3769 20.1338 14.7826 20.9444C15.1882 21.755 15.7774 22.4597 16.5034 23.0025L17.5034 21.6692ZM19.1642 26.4525C19.1378 25.1818 18.8752 23.9272 18.39 22.7525L16.85 23.39C17.255 24.3708 17.4759 25.4208 17.4984 26.4875L19.1642 26.4525ZM21.1184 26.0092C20.7711 26.1828 20.3882 26.2732 20 26.2732C19.6118 26.2732 19.2289 26.1828 18.8817 26.0092L18.1367 27.5C18.7152 27.7893 19.3532 27.9399 20 27.9399C20.6469 27.9399 21.2848 27.7893 21.8634 27.5L21.1184 26.0092ZM21.61 22.7533C21.1246 23.9277 20.8618 25.1821 20.835 26.4525L22.5017 26.4875C22.5242 25.4208 22.745 24.3708 23.15 23.39L21.61 22.7533ZM21.8634 27.5C22.0519 27.4053 22.2109 27.261 22.3234 27.0826C22.4359 26.9042 22.4976 26.6984 22.5017 26.4875L20.835 26.4525C20.8373 26.3598 20.8649 26.2695 20.9149 26.1913C20.9648 26.1132 21.0352 26.0502 21.1184 26.0092L21.8634 27.5ZM17.4984 26.4875C17.5067 26.9075 17.7434 27.3033 18.1367 27.5L18.8817 26.0092C18.9649 26.0502 19.0352 26.1132 19.0852 26.1913C19.1351 26.2695 19.1627 26.3598 19.165 26.4525L17.4984 26.4875ZM16.5034 23.0025C16.6284 23.0975 16.7025 23.1525 16.7542 23.1942C16.8067 23.2375 16.7967 23.2358 16.7734 23.2058L18.09 22.1842C17.9342 21.9825 17.6925 21.8108 17.5034 21.6692L16.5034 23.0025ZM18.39 22.7525C18.325 22.595 18.2425 22.38 18.09 22.1842L16.7734 23.2058C16.7625 23.1908 16.76 23.1833 16.7709 23.2058L16.8 23.2708L16.85 23.39L18.39 22.7525ZM22.4967 21.6692C22.3075 21.8108 22.065 21.9833 21.9092 22.1842L23.2267 23.2058C23.2042 23.235 23.1934 23.2375 23.2459 23.195C23.2975 23.1525 23.3709 23.0975 23.4967 23.0033L22.4967 21.6692ZM23.15 23.39L23.2 23.2708L23.2292 23.2058C23.24 23.1833 23.2375 23.1908 23.2267 23.2058L21.9092 22.1842C21.7567 22.3808 21.675 22.595 21.61 22.7533L23.15 23.39Z" fill="#E6AE06"/>
<path d="M22.4934 23.3333C21.7556 23.827 20.8878 24.0905 20 24.0905C19.1123 24.0905 18.2445 23.827 17.5067 23.3333" stroke="#E6AE06" stroke-width="1.66667"/>
</svg>
