<svg width="20" height="20" viewBox="0 0 20 20" fill="none" xmlns="http://www.w3.org/2000/svg">
<g clip-path="url(#clip0_42_2)">
<path d="M16.6296 8.47034C17.6587 8.52117 18.4946 9.24242 18.6004 10.267C18.6817 11.0553 18.75 12.1358 18.75 13.5416C18.75 14.9474 18.6817 16.0278 18.6004 16.8162C18.4946 17.8412 17.6587 18.562 16.6296 18.6128C15.2896 18.6791 13.1221 18.7499 10 18.7499C6.87792 18.7499 4.71042 18.6791 3.37042 18.6128C2.34125 18.562 1.50542 17.8408 1.39958 16.8162C1.31833 16.0278 1.25 14.9474 1.25 13.5416C1.25 12.1358 1.31833 11.0553 1.39958 10.267C1.50542 9.242 2.34125 8.52117 3.37042 8.47034C4.71042 8.40409 6.87792 8.33325 10 8.33325C13.1221 8.33325 15.2896 8.40409 16.6296 8.47034Z" stroke="#101828" stroke-width="1.5" stroke-linecap="round" stroke-linejoin="round"/>
<path d="M10 1.25C9.47792 1.94042 9.41208 2.78833 10 3.75C10.5879 4.71167 10.5221 5.55958 10 6.25M5.83333 1.25C5.31125 1.94042 5.24542 2.78833 5.83333 3.75C6.42125 4.71167 6.35542 5.55958 5.83333 6.25M14.1667 1.25C13.6446 1.94042 13.5787 2.78833 14.1667 3.75C14.7546 4.71167 14.6887 5.55958 14.1667 6.25M15.3937 10.8437C15.8846 10.8708 16.2117 11.2771 16.2267 11.7688C16.2392 12.1838 16.25 12.7679 16.25 13.5417C16.25 14.3154 16.2392 14.8996 16.2267 15.3146C16.2117 15.8063 15.8846 16.2125 15.3933 16.2396C15.1312 16.2542 14.8684 16.2542 14.6062 16.2396C14.1154 16.2125 13.7883 15.8063 13.7733 15.3146C13.7608 14.8996 13.75 14.3154 13.75 13.5417C13.75 12.7679 13.7608 12.1838 13.7733 11.7688C13.7883 11.2771 14.1154 10.8708 14.6067 10.8437C14.8688 10.8292 15.1316 10.8292 15.3937 10.8437ZM10.3937 10.8437C10.8846 10.8708 11.2117 11.2771 11.2267 11.7688C11.2392 12.1838 11.25 12.7679 11.25 13.5417C11.25 14.3154 11.2392 14.8996 11.2267 15.3146C11.2117 15.8063 10.8846 16.2125 10.3933 16.2396C10.1312 16.2542 9.86841 16.2542 9.60625 16.2396C9.11542 16.2125 8.78833 15.8063 8.77333 15.3146C8.76083 14.8996 8.75 14.3154 8.75 13.5417C8.75 12.7679 8.76083 12.1838 8.77333 11.7688C8.78833 11.2771 9.11542 10.8708 9.60667 10.8437C9.86882 10.8292 10.1316 10.8292 10.3937 10.8437ZM6.25 12.0833C6.25 12.4149 6.1183 12.7328 5.88388 12.9672C5.64946 13.2016 5.33152 13.3333 5 13.3333C4.66848 13.3333 4.35054 13.2016 4.11612 12.9672C3.8817 12.7328 3.75 12.4149 3.75 12.0833C3.75 11.7518 3.8817 11.4339 4.11612 11.1994C4.35054 10.965 4.66848 10.8333 5 10.8333C5.33152 10.8333 5.64946 10.965 5.88388 11.1994C6.1183 11.4339 6.25 11.7518 6.25 12.0833Z" stroke="#101828" stroke-width="1.5" stroke-linecap="round" stroke-linejoin="round"/>
</g>
<defs>
<clipPath id="clip0_42_2">
<rect width="20" height="20" fill="white"/>
</clipPath>
</defs>
</svg>
