<svg width="48" height="48" viewBox="0 0 48 48" fill="none" xmlns="http://www.w3.org/2000/svg">
<circle cx="24" cy="24" r="24" fill="#E6E2FF"/>
<path d="M21.0888 14.1699C21.1576 13.4454 21.4942 12.7725 22.0326 12.2828C22.5711 11.7931 23.2728 11.5217 24.0006 11.5217C24.7285 11.5217 25.4302 11.7931 25.9686 12.2828C26.5071 12.7725 26.8436 13.4454 26.9125 14.1699C26.9539 14.638 27.1075 15.0892 27.3602 15.4854C27.6129 15.8815 27.9573 16.211 28.3643 16.4458C28.7713 16.6806 29.2289 16.8139 29.6984 16.8345C30.1678 16.855 30.6353 16.7621 31.0613 16.5637C31.7227 16.2634 32.4721 16.22 33.1638 16.4418C33.8554 16.6636 34.4398 17.1349 34.8032 17.7638C35.1665 18.3928 35.2829 19.1344 35.1296 19.8444C34.9763 20.5544 34.5643 21.182 33.9738 21.6049C33.5892 21.8748 33.2754 22.2332 33.0587 22.65C32.842 23.0667 32.7288 23.5296 32.7288 23.9993C32.7288 24.4691 32.842 24.9319 33.0587 25.3487C33.2754 25.7654 33.5892 26.1239 33.9738 26.3937C34.5643 26.8167 34.9763 27.4442 35.1296 28.1542C35.2829 28.8642 35.1665 29.6059 34.8032 30.2348C34.4398 30.8638 33.8554 31.335 33.1638 31.5568C32.4721 31.7787 31.7227 31.7352 31.0613 31.4349C30.6353 31.2365 30.1678 31.1436 29.6984 31.1642C29.2289 31.1847 28.7713 31.318 28.3643 31.5528C27.9573 31.7877 27.6129 32.1171 27.3602 32.5133C27.1075 32.9094 26.9539 33.3606 26.9125 33.8287C26.8436 34.5533 26.5071 35.2261 25.9686 35.7158C25.4302 36.2056 24.7285 36.4769 24.0006 36.4769C23.2728 36.4769 22.5711 36.2056 22.0326 35.7158C21.4942 35.2261 21.1576 34.5533 21.0888 33.8287C21.0474 33.3605 20.8939 32.9091 20.6411 32.5128C20.3883 32.1165 20.0437 31.787 19.6366 31.5521C19.2294 31.3172 18.7716 31.184 18.302 31.1636C17.8324 31.1432 17.3648 31.2363 16.9388 31.4349C16.2774 31.7352 15.5279 31.7787 14.8363 31.5568C14.1446 31.335 13.5602 30.8638 13.1969 30.2348C12.8335 29.6059 12.7172 28.8642 12.8705 28.1542C13.0238 27.4442 13.4358 26.8167 14.0263 26.3937C14.4108 26.1239 14.7247 25.7654 14.9414 25.3487C15.1581 24.9319 15.2712 24.4691 15.2712 23.9993C15.2712 23.5296 15.1581 23.0667 14.9414 22.65C14.7247 22.2332 14.4108 21.8748 14.0263 21.6049C13.4366 21.1818 13.0253 20.5544 12.8724 19.8449C12.7195 19.1354 12.8358 18.3944 13.1987 17.7658C13.5617 17.1373 14.1454 16.6662 14.8364 16.444C15.5273 16.2218 16.2762 16.2645 16.9375 16.5637C17.3635 16.7621 17.8309 16.855 18.3004 16.8345C18.7698 16.8139 19.2274 16.6806 19.6344 16.4458C20.0414 16.211 20.3859 15.8815 20.6386 15.4854C20.8913 15.0892 21.0449 14.638 21.0863 14.1699M27.75 23.9999C27.75 26.071 26.0711 27.7499 24 27.7499C21.9289 27.7499 20.25 26.071 20.25 23.9999C20.25 21.9289 21.9289 20.2499 24 20.2499C26.0711 20.2499 27.75 21.9289 27.75 23.9999Z" stroke="#5A3FFF" stroke-width="2" stroke-linecap="round" stroke-linejoin="round"/>
</svg>
