<svg width="48" height="48" viewBox="0 0 48 48" fill="none" xmlns="http://www.w3.org/2000/svg">
<circle cx="24" cy="24" r="24" fill="#E6E2FF"/>
<path d="M24 30.2499V35.2499M26.8813 18.4124L28.035 17.9349M28.035 15.0649L26.8813 14.5861M30.065 13.0349L29.5862 11.8799M30.065 19.9649L29.5862 21.1186M32.935 13.0349L33.4138 11.8799M33.4125 21.1199L32.935 19.9649M34.965 15.0649L36.12 14.5861M34.965 17.9349L36.12 18.4136M36.5 25.2499V27.7499C36.5 28.4129 36.2366 29.0488 35.7678 29.5176C35.2989 29.9865 34.663 30.2499 34 30.2499H14C13.337 30.2499 12.7011 29.9865 12.2322 29.5176C11.7634 29.0488 11.5 28.4129 11.5 27.7499V15.2499C11.5 14.5868 11.7634 13.951 12.2322 13.4821C12.7011 13.0133 13.337 12.7499 14 12.7499H22.75M19 35.2499H29M35.25 16.4999C35.25 18.571 33.5711 20.2499 31.5 20.2499C29.4289 20.2499 27.75 18.571 27.75 16.4999C27.75 14.4288 29.4289 12.7499 31.5 12.7499C33.5711 12.7499 35.25 14.4288 35.25 16.4999Z" stroke="#5A3FFF" stroke-width="2" stroke-linecap="round" stroke-linejoin="round"/>
</svg>
