<svg width="50" height="50" viewBox="0 0 50 50" fill="none" xmlns="http://www.w3.org/2000/svg">
<rect opacity="0.5" width="50" height="50" rx="10" fill="#FFECB2"/>
<path d="M19.75 18.25C19.75 17.0565 20.2241 15.9119 21.068 15.068C21.9119 14.2241 23.0565 13.75 24.25 13.75C25.4435 13.75 26.5881 14.2241 27.432 15.068C28.2759 15.9119 28.75 17.0565 28.75 18.25V26.281C29.5138 27.147 30.0114 28.215 30.1832 29.3568C30.355 30.4987 30.1937 31.6658 29.7186 32.7183C29.2435 33.7707 28.4749 34.6637 27.5049 35.2901C26.5348 35.9164 25.4047 36.2496 24.25 36.2496C23.0953 36.2496 21.9652 35.9164 20.9951 35.2901C20.0251 34.6637 19.2565 33.7707 18.7814 32.7183C18.3063 31.6658 18.145 30.4987 18.3168 29.3568C18.4886 28.215 18.9863 27.147 19.75 26.281V18.25ZM24.25 16C23.6533 16 23.081 16.2371 22.659 16.659C22.2371 17.081 22 17.6533 22 18.25V27.2125L21.655 27.5425C21.1149 28.0605 20.7422 28.7283 20.5847 29.4598C20.4272 30.1914 20.4923 30.9534 20.7714 31.6477C21.0506 32.3421 21.5311 32.937 22.1511 33.356C22.7712 33.775 23.5024 33.9989 24.2508 33.9989C24.9991 33.9989 25.7303 33.775 26.3504 33.356C26.9704 32.937 27.4509 32.3421 27.7301 31.6477C28.0092 30.9534 28.0743 30.1914 27.9168 29.4598C27.7593 28.7283 27.3866 28.0605 26.8465 27.5425L26.5 27.214V18.25C26.5 17.6533 26.263 17.081 25.841 16.659C25.419 16.2371 24.8467 16 24.25 16ZM25 22C25 21.8011 24.921 21.6103 24.7803 21.4697C24.6397 21.329 24.4489 21.25 24.25 21.25C24.0511 21.25 23.8603 21.329 23.7197 21.4697C23.579 21.6103 23.5 21.8011 23.5 22V28.1275C22.9996 28.3044 22.5778 28.6526 22.3093 29.1104C22.0407 29.5682 21.9427 30.1062 22.0324 30.6293C22.1222 31.1524 22.394 31.627 22.7998 31.9691C23.2056 32.3112 23.7192 32.4988 24.25 32.4988C24.7808 32.4988 25.2944 32.3112 25.7002 31.9691C26.1061 31.627 26.3778 31.1524 26.4676 30.6293C26.5574 30.1062 26.4593 29.5682 26.1907 29.1104C25.9222 28.6526 25.5004 28.3044 25 28.1275V22Z" fill="#101828"/>
</svg>
