<svg width="20" height="20" viewBox="0 0 20 20" fill="none" xmlns="http://www.w3.org/2000/svg">
<path d="M15.875 18.25L8.62501 10.9583C8.19445 11.0556 7.7814 11.1875 7.38584 11.3542C6.99029 11.5208 6.61862 11.7222 6.27084 11.9583C5.97917 12.1528 5.6564 12.2536 5.30251 12.2608C4.94862 12.2681 4.65334 12.1464 4.41667 11.8958C4.16667 11.6458 4.05223 11.3436 4.07334 10.9892C4.09445 10.6347 4.24362 10.3536 4.52084 10.1458C4.84029 9.90972 5.17723 9.69444 5.53167 9.5C5.88612 9.30555 6.25056 9.125 6.62501 8.95833L4.75001 7.08333C4.3889 7.27778 4.03834 7.48278 3.69834 7.69833C3.35834 7.91389 3.02834 8.14639 2.70834 8.39583C2.43056 8.61806 2.11473 8.72917 1.76084 8.72917C1.40695 8.72917 1.11167 8.60417 0.875008 8.35417C0.625008 8.10417 0.506952 7.80556 0.520841 7.45833C0.53473 7.11111 0.680564 6.82639 0.958341 6.60417C1.2639 6.35417 1.5764 6.11472 1.89584 5.88583C2.21529 5.65694 2.55556 5.445 2.91667 5.25L1.75001 4.08333C1.59723 3.93056 1.52084 3.73611 1.52084 3.5C1.52084 3.26389 1.59723 3.06944 1.75001 2.91667C1.90279 2.76389 2.09723 2.6875 2.33334 2.6875C2.56945 2.6875 2.7639 2.76389 2.91667 2.91667L17.0625 17.0625C17.2292 17.2292 17.3125 17.4272 17.3125 17.6567C17.3125 17.8861 17.2292 18.0839 17.0625 18.25C16.8958 18.4028 16.6981 18.4828 16.4692 18.49C16.2403 18.4972 16.0422 18.4172 15.875 18.25ZM10 17.5C9.41667 17.5 8.92362 17.2953 8.52084 16.8858C8.11806 16.4764 7.91667 15.9867 7.91667 15.4167C7.91667 14.8333 8.11806 14.3403 8.52084 13.9375C8.92362 13.5347 9.41667 13.3333 10 13.3333C10.5833 13.3333 11.0764 13.5347 11.4792 13.9375C11.882 14.3403 12.0833 14.8333 12.0833 15.4167C12.0833 15.9861 11.882 16.4758 11.4792 16.8858C11.0764 17.2958 10.5833 17.5006 10 17.5ZM15.6875 11.7708C15.4653 11.9931 15.205 12.1008 14.9067 12.0942C14.6083 12.0875 14.3478 11.9728 14.125 11.75L13.9167 11.5417L13.7083 11.3333L11.7083 9.33333C11.5278 9.15278 11.4931 8.96528 11.6042 8.77083C11.7153 8.57639 11.9097 8.51389 12.1875 8.58333C12.8125 8.73611 13.4061 8.95139 13.9683 9.22917C14.5306 9.50694 15.055 9.83333 15.5417 10.2083C15.7917 10.4028 15.9342 10.6564 15.9692 10.9692C16.0042 11.2819 15.9103 11.5492 15.6875 11.7708ZM19.125 8.35417C18.8889 8.60417 18.5972 8.7325 18.25 8.73917C17.9028 8.74583 17.5903 8.63833 17.3125 8.41667C16.3125 7.59722 15.1911 6.96194 13.9483 6.51083C12.7056 6.05972 11.3895 5.83389 10 5.83333C9.70834 5.83333 9.42723 5.84389 9.15667 5.865C8.88612 5.88611 8.61167 5.91722 8.33334 5.95833C7.98612 6.01389 7.67362 5.94111 7.39584 5.74C7.11806 5.53889 6.9514 5.26444 6.89584 4.91667C6.84028 4.56889 6.91667 4.25639 7.12501 3.97917C7.33334 3.70194 7.61112 3.53528 7.95834 3.47917C8.29167 3.42361 8.62862 3.38556 8.96917 3.365C9.30973 3.34444 9.65334 3.33389 10 3.33333C11.7361 3.33333 13.3717 3.62167 14.9067 4.19833C16.4417 4.775 17.82 5.57 19.0417 6.58333C19.3195 6.81944 19.4653 7.11111 19.4792 7.45833C19.4931 7.80556 19.375 8.10417 19.125 8.35417Z" fill="white"/>
</svg>
