<svg width="20" height="20" viewBox="0 0 20 20" fill="none" xmlns="http://www.w3.org/2000/svg">
<path d="M10 17.4999C9.41667 17.4999 8.92362 17.2985 8.52084 16.8958C8.11806 16.493 7.91667 15.9999 7.91667 15.4166C7.91667 14.8333 8.11806 14.3402 8.52084 13.9374C8.92362 13.5346 9.41667 13.3333 10 13.3333C10.5833 13.3333 11.0764 13.5346 11.4792 13.9374C11.882 14.3402 12.0833 14.8333 12.0833 15.4166C12.0833 15.9999 11.882 16.493 11.4792 16.8958C11.0764 17.2985 10.5833 17.4999 10 17.4999ZM10 8.33325C11.0417 8.33325 12.0314 8.49992 12.9692 8.83325C13.9069 9.16659 14.7575 9.62492 15.5208 10.2083C15.7986 10.4166 15.9411 10.691 15.9483 11.0316C15.9556 11.3721 15.8339 11.6671 15.5833 11.9166C15.3472 12.1527 15.0556 12.2744 14.7083 12.2816C14.3611 12.2888 14.0486 12.1949 13.7708 11.9999C13.2431 11.6388 12.6597 11.3541 12.0208 11.1458C11.382 10.9374 10.7083 10.8333 10 10.8333C9.29167 10.8333 8.61806 10.9374 7.97917 11.1458C7.34028 11.3541 6.75695 11.6388 6.22917 11.9999C5.9514 12.1944 5.6389 12.2846 5.29167 12.2708C4.94445 12.2569 4.65279 12.1319 4.41667 11.8958C4.18056 11.6458 4.06251 11.3508 4.06251 11.0108C4.06251 10.6708 4.2014 10.3963 4.47917 10.1874C5.24306 9.60409 6.0939 9.14909 7.03167 8.82242C7.96945 8.49575 8.9589 8.3327 10 8.33325ZM10 3.33325C11.7361 3.33325 13.3717 3.61797 14.9067 4.18742C16.4417 4.75686 17.82 5.56242 19.0417 6.60409C19.3195 6.8402 19.4653 7.13186 19.4792 7.47909C19.4931 7.82631 19.375 8.12492 19.125 8.37492C18.8889 8.61103 18.5972 8.7327 18.25 8.73992C17.9028 8.74714 17.5903 8.63936 17.3125 8.41659C16.3125 7.59714 15.1911 6.96186 13.9483 6.51075C12.7056 6.05964 11.3895 5.83381 10 5.83325C8.61056 5.8327 7.29473 6.05853 6.05251 6.51075C4.81029 6.96297 3.68862 7.59825 2.68751 8.41659C2.40973 8.63881 2.09723 8.74659 1.75001 8.73992C1.40279 8.73325 1.11112 8.61159 0.875008 8.37492C0.625008 8.12492 0.506952 7.82631 0.520841 7.47909C0.53473 7.13186 0.680564 6.8402 0.958341 6.60409C2.18056 5.56242 3.55917 4.75686 5.09417 4.18742C6.62917 3.61797 8.26445 3.33325 10 3.33325Z" fill="white"/>
</svg>
